<svg id="visual" viewBox="0 0 900 600" width="900" height="600" xmlns="http://www.w3.org/2000/svg" xmlns:xlink="http://www.w3.org/1999/xlink" version="1.1"><rect x="0" y="0" width="900" height="600" fill="#fff"></rect><path d="M0 370L21.5 367.3C43 364.7 86 359.3 128.8 363.8C171.7 368.3 214.3 382.7 257.2 387.3C300 392 343 387 385.8 383.7C428.7 380.3 471.3 378.7 514.2 387C557 395.3 600 413.7 642.8 414.5C685.7 415.3 728.3 398.7 771.2 384.8C814 371 857 360 878.5 354.5L900 349L900 601L878.5 601C857 601 814 601 771.2 601C728.3 601 685.7 601 642.8 601C600 601 557 601 514.2 601C471.3 601 428.7 601 385.8 601C343 601 300 601 257.2 601C214.3 601 171.7 601 128.8 601C86 601 43 601 21.5 601L0 601Z" fill="#7386cc"></path><path d="M0 479L21.5 476C43 473 86 467 128.8 465.5C171.7 464 214.3 467 257.2 468.7C300 470.3 343 470.7 385.8 472C428.7 473.3 471.3 475.7 514.2 462.8C557 450 600 422 642.8 421.2C685.7 420.3 728.3 446.7 771.2 448.7C814 450.7 857 428.3 878.5 417.2L900 406L900 601L878.5 601C857 601 814 601 771.2 601C728.3 601 685.7 601 642.8 601C600 601 557 601 514.2 601C471.3 601 428.7 601 385.8 601C343 601 300 601 257.2 601C214.3 601 171.7 601 128.8 601C86 601 43 601 21.5 601L0 601Z" fill="#7a82c5"></path><path d="M0 461L21.5 461.7C43 462.3 86 463.7 128.8 463.2C171.7 462.7 214.3 460.3 257.2 464.2C300 468 343 478 385.8 482.5C428.7 487 471.3 486 514.2 477.8C557 469.7 600 454.3 642.8 455.3C685.7 456.3 728.3 473.7 771.2 483.3C814 493 857 495 878.5 496L900 497L900 601L878.5 601C857 601 814 601 771.2 601C728.3 601 685.7 601 642.8 601C600 601 557 601 514.2 601C471.3 601 428.7 601 385.8 601C343 601 300 601 257.2 601C214.3 601 171.7 601 128.8 601C86 601 43 601 21.5 601L0 601Z" fill="#7f7ebe"></path><path d="M0 512L21.5 516.3C43 520.7 86 529.3 128.8 531.8C171.7 534.3 214.3 530.7 257.2 525.3C300 520 343 513 385.8 509C428.7 505 471.3 504 514.2 508.7C557 513.3 600 523.7 642.8 522.8C685.7 522 728.3 510 771.2 507.7C814 505.3 857 512.7 878.5 516.3L900 520L900 601L878.5 601C857 601 814 601 771.2 601C728.3 601 685.7 601 642.8 601C600 601 557 601 514.2 601C471.3 601 428.7 601 385.8 601C343 601 300 601 257.2 601C214.3 601 171.7 601 128.8 601C86 601 43 601 21.5 601L0 601Z" fill="#837ab7"></path><path d="M0 536L21.5 536.2C43 536.3 86 536.7 128.8 537.2C171.7 537.7 214.3 538.3 257.2 544.3C300 550.3 343 561.7 385.8 562.8C428.7 564 471.3 555 514.2 554.7C557 554.3 600 562.7 642.8 561.3C685.7 560 728.3 549 771.2 548C814 547 857 556 878.5 560.5L900 565L900 601L878.5 601C857 601 814 601 771.2 601C728.3 601 685.7 601 642.8 601C600 601 557 601 514.2 601C471.3 601 428.7 601 385.8 601C343 601 300 601 257.2 601C214.3 601 171.7 601 128.8 601C86 601 43 601 21.5 601L0 601Z" fill="#8776b0"></path></svg>